<svg width="20" height="21" viewBox="0 0 20 21" fill="none" xmlns="http://www.w3.org/2000/svg">
<path d="M6.38883 8.31718C6.38883 8.11663 6.4685 7.92429 6.61031 7.78248C6.75212 7.64067 6.94446 7.561 7.14501 7.561H13.1944C13.395 7.561 13.5873 7.64067 13.7291 7.78248C13.8709 7.92429 13.9506 8.11663 13.9506 8.31718C13.9506 8.51773 13.8709 8.71006 13.7291 8.85188C13.5873 8.99369 13.395 9.07335 13.1944 9.07335H7.14501C6.94446 9.07335 6.75212 8.99369 6.61031 8.85188C6.4685 8.71006 6.38883 8.51773 6.38883 8.31718ZM6.38883 11.3411C6.38883 11.1406 6.4685 10.9482 6.61031 10.8064C6.75212 10.6646 6.94446 10.5849 7.14501 10.5849H11.6821C11.8826 10.5849 12.075 10.6646 12.2168 10.8064C12.3586 10.9482 12.4382 11.1406 12.4382 11.3411C12.4382 11.5417 12.3586 11.734 12.2168 11.8758C12.075 12.0176 11.8826 12.0973 11.6821 12.0973H7.14501C6.94446 12.0973 6.75212 12.0176 6.61031 11.8758C6.4685 11.734 6.38883 11.5417 6.38883 11.3411ZM10.1697 0C4.74037 0 0.339427 4.40094 0.339427 9.82877C0.339427 11.3978 0.707684 12.8822 1.36253 14.1995L0.0800584 18.0461C-0.306347 19.2046 0.769691 20.32 1.94101 19.9744L6.06519 18.7622C7.35248 19.3542 8.75284 19.6599 10.1697 19.6583C15.5991 19.6583 20 15.2574 20 9.82877C20 4.40094 15.5991 0 10.1697 0ZM1.85178 9.82877C1.85178 5.23576 5.57594 1.51235 10.1697 1.51235C14.7642 1.51235 18.4876 5.23576 18.4876 9.82877C18.4876 14.4225 14.7642 18.146 10.1697 18.146C8.83809 18.146 7.58132 17.8337 6.46672 17.2786L6.2013 17.1463L1.51452 18.524L3.00192 14.0634L2.84615 13.776C2.19122 12.5636 1.84943 11.2068 1.85178 9.82877Z" fill="white"/>
</svg>
